HIERARCHY
ROOT Hips
{
	OFFSET 0.000000 100.481300 0.000000
	CHANNELS 6 Xposition Yposition Zposition Xrotation Yrotation Zrotation
	JOINT Spine
	{
		OFFSET -0.279200 12.230698 -2.892100
		CHANNELS 3 Xrotation Yrotation Zrotation
		JOINT Spine1
		{
			OFFSET -0.325700 14.269203 -3.374200
			CHANNELS 3 Xrotation Yrotation Zrotation
			JOINT Spine2
			{
				OFFSET -0.372300 16.307602 -0.352600
				CHANNELS 3 Xrotation Yrotation Zrotation
				JOINT Neck
				{
					OFFSET -0.418800 17.814194 8.416900
					CHANNELS 3 Xrotation Yrotation Zrotation
					JOINT Head
					{
						OFFSET 0.000000 7.031097 3.806800
						CHANNELS 3 Xrotation Yrotation Zrotation
						JOINT HeadTop_End
						{
							OFFSET 0.000000 24.646606 12.978600
							CHANNELS 3 Xrotation Yrotation Zrotation
							End Site
							{
								OFFSET 0.000000 27.854965 0.000000
							}
						}
					}
				}
				JOINT LeftShoulder
				{
					OFFSET 16.952999 14.495407 -7.737500
					CHANNELS 3 Xrotation Yrotation Zrotation
					JOINT LeftArm
					{
						OFFSET 9.308998 -2.777710 0.208600
						CHANNELS 3 Xrotation Yrotation Zrotation
						JOINT LeftForeArm
						{
							OFFSET 29.972298 0.000000 0.000000
							CHANNELS 3 Xrotation Yrotation Zrotation
							JOINT LeftHand
							{
								OFFSET 26.026505 0.000000 0.000000
								CHANNELS 3 Xrotation Yrotation Zrotation
								JOINT LeftHandThumb1
								{
									OFFSET 12.240501 -7.147949 9.207150
									CHANNELS 3 Xrotation Yrotation Zrotation
									JOINT LeftHandThumb2
									{
										OFFSET 4.138618 -2.389435 2.389433
										CHANNELS 3 Xrotation Yrotation Zrotation
										JOINT LeftHandThumb3
										{
											OFFSET 2.726913 -1.574387 1.574386
											CHANNELS 3 Xrotation Yrotation Zrotation
											JOINT LeftHandThumb4
											{
												OFFSET 3.941010 -2.275345 2.275342
												CHANNELS 3 Xrotation Yrotation Zrotation
												End Site
												{
													OFFSET -0.005798 5.087799 0.009903
												}
											}
										}
									}
								}
								JOINT LeftHandIndex1
								{
									OFFSET 24.424698 -1.985611 5.953459
									CHANNELS 3 Xrotation Yrotation Zrotation
									JOINT LeftHandIndex2
									{
										OFFSET 6.426697 0.000000 0.000000
										CHANNELS 3 Xrotation Yrotation Zrotation
										JOINT LeftHandIndex3
										{
											OFFSET 5.337898 0.000000 0.000000
											CHANNELS 3 Xrotation Yrotation Zrotation
											JOINT LeftHandIndex4
											{
												OFFSET 4.409401 0.000000 0.000000
												CHANNELS 3 Xrotation Yrotation Zrotation
												End Site
												{
													OFFSET 0.000000 4.409363 0.014373
												}
											}
										}
									}
								}
								JOINT LeftHandMiddle1
								{
									OFFSET 23.810104 0.000000 0.000000
									CHANNELS 3 Xrotation Yrotation Zrotation
									JOINT LeftHandMiddle2
									{
										OFFSET 7.176498 0.000000 0.000000
										CHANNELS 3 Xrotation Yrotation Zrotation
										JOINT LeftHandMiddle3
										{
											OFFSET 6.774902 0.000000 0.000000
											CHANNELS 3 Xrotation Yrotation Zrotation
											JOINT LeftHandMiddle4
											{
												OFFSET 5.403328 0.000000 0.000000
												CHANNELS 3 Xrotation Yrotation Zrotation
												End Site
												{
													OFFSET -0.027702 5.403244 0.017414
												}
											}
										}
									}
								}
								JOINT LeftHandRing1
								{
									OFFSET 22.908401 -0.839279 -6.020567
									CHANNELS 3 Xrotation Yrotation Zrotation
									JOINT LeftHandRing2
									{
										OFFSET 6.337502 0.000000 0.000000
										CHANNELS 3 Xrotation Yrotation Zrotation
										JOINT LeftHandRing3
										{
											OFFSET 5.779297 0.000000 0.000000
											CHANNELS 3 Xrotation Yrotation Zrotation
											JOINT LeftHandRing4
											{
												OFFSET 4.965698 0.000000 0.000000
												CHANNELS 3 Xrotation Yrotation Zrotation
												End Site
												{
													OFFSET 0.000000 4.965668 0.016186
												}
											}
										}
									}
								}
								JOINT LeftHandPinky1
								{
									OFFSET 20.037003 -1.530319 -10.950146
									CHANNELS 3 Xrotation Yrotation Zrotation
									JOINT LeftHandPinky2
									{
										OFFSET 5.254700 0.000000 0.000000
										CHANNELS 3 Xrotation Yrotation Zrotation
										JOINT LeftHandPinky3
										{
											OFFSET 4.810204 0.000000 0.000000
											CHANNELS 3 Xrotation Yrotation Zrotation
											JOINT LeftHandPinky4
											{
												OFFSET 3.647202 0.000000 0.000000
												CHANNELS 3 Xrotation Yrotation Zrotation
												End Site
												{
													OFFSET 0.000000 3.647186 0.011889
												}
											}
										}
									}
								}
							}
						}
					}
				}
				JOINT RightShoulder
				{
					OFFSET -15.141001 14.495407 -7.737500
					CHANNELS 3 Xrotation Yrotation Zrotation
					JOINT RightArm
					{
						OFFSET -9.308998 -2.777710 0.208500
						CHANNELS 3 Xrotation Yrotation Zrotation
						JOINT RightForeArm
						{
							OFFSET -29.972300 0.000000 0.000000
							CHANNELS 3 Xrotation Yrotation Zrotation
							JOINT RightHand
							{
								OFFSET -26.026505 0.000000 0.000000
								CHANNELS 3 Xrotation Yrotation Zrotation
								JOINT RightHandThumb1
								{
									OFFSET -12.240601 -7.148026 9.207092
									CHANNELS 3 Xrotation Yrotation Zrotation
									JOINT RightHandThumb2
									{
										OFFSET -4.138618 -2.389435 2.389433
										CHANNELS 3 Xrotation Yrotation Zrotation
										JOINT RightHandThumb3
										{
											OFFSET -2.726974 -1.574417 1.574421
											CHANNELS 3 Xrotation Yrotation Zrotation
											JOINT RightHandThumb4
											{
												OFFSET -3.941010 -2.275345 2.275343
												CHANNELS 3 Xrotation Yrotation Zrotation
												End Site
												{
													OFFSET 0.005814 5.087799 0.009927
												}
											}
										}
									}
								}
								JOINT RightHandIndex1
								{
									OFFSET -24.424698 -1.985657 5.953444
									CHANNELS 3 Xrotation Yrotation Zrotation
									JOINT RightHandIndex2
									{
										OFFSET -6.426697 0.000000 0.000000
										CHANNELS 3 Xrotation Yrotation Zrotation
										JOINT RightHandIndex3
										{
											OFFSET -5.337898 0.000000 0.000000
											CHANNELS 3 Xrotation Yrotation Zrotation
											JOINT RightHandIndex4
											{
												OFFSET -4.409401 0.000000 0.000000
												CHANNELS 3 Xrotation Yrotation Zrotation
												End Site
												{
													OFFSET 0.000000 4.409363 0.014408
												}
											}
										}
									}
								}
								JOINT RightHandMiddle1
								{
									OFFSET -23.810097 0.000000 0.000000
									CHANNELS 3 Xrotation Yrotation Zrotation
									JOINT RightHandMiddle2
									{
										OFFSET -7.176498 0.000000 0.000000
										CHANNELS 3 Xrotation Yrotation Zrotation
										JOINT RightHandMiddle3
										{
											OFFSET -6.774902 0.000000 0.000000
											CHANNELS 3 Xrotation Yrotation Zrotation
											JOINT RightHandMiddle4
											{
												OFFSET -5.403328 0.000000 0.000000
												CHANNELS 3 Xrotation Yrotation Zrotation
												End Site
												{
													OFFSET 0.027702 5.403244 0.017457
												}
											}
										}
									}
								}
								JOINT RightHandRing1
								{
									OFFSET -22.908302 -0.839325 -6.020576
									CHANNELS 3 Xrotation Yrotation Zrotation
									JOINT RightHandRing2
									{
										OFFSET -6.337502 0.000000 0.000000
										CHANNELS 3 Xrotation Yrotation Zrotation
										JOINT RightHandRing3
										{
											OFFSET -5.779297 0.000000 0.000000
											CHANNELS 3 Xrotation Yrotation Zrotation
											JOINT RightHandRing4
											{
												OFFSET -4.965698 0.000000 0.000000
												CHANNELS 3 Xrotation Yrotation Zrotation
												End Site
												{
													OFFSET 0.000000 4.965668 0.016226
												}
											}
										}
									}
								}
								JOINT RightHandPinky1
								{
									OFFSET -20.037003 -1.530334 -10.950259
									CHANNELS 3 Xrotation Yrotation Zrotation
									JOINT RightHandPinky2
									{
										OFFSET -5.254700 0.000000 0.000000
										CHANNELS 3 Xrotation Yrotation Zrotation
										JOINT RightHandPinky3
										{
											OFFSET -4.810204 0.000000 0.000000
											CHANNELS 3 Xrotation Yrotation Zrotation
											JOINT RightHandPinky4
											{
												OFFSET -3.647202 0.000000 0.000000
												CHANNELS 3 Xrotation Yrotation Zrotation
												End Site
												{
													OFFSET 0.000000 3.647186 0.011917
												}
											}
										}
									}
								}
							}
						}
					}
				}
			}
		}
	}
	JOINT LeftUpLeg
	{
		OFFSET 15.427100 -6.655098 0.678600
		CHANNELS 3 Xrotation Yrotation Zrotation
		JOINT LeftLeg
		{
			OFFSET 4.081073 -39.591068 13.024000
			CHANNELS 3 Xrotation Yrotation Zrotation
			JOINT LeftFoot
			{
				OFFSET -4.081074 -37.707932 -15.979700
				CHANNELS 3 Xrotation Yrotation Zrotation
				JOINT LeftToeBase
				{
					OFFSET 5.346399 -15.068900 20.645000
					CHANNELS 3 Xrotation Yrotation Zrotation
					JOINT LeftToe_End
					{
						OFFSET 2.754700 0.931300 11.300900
						CHANNELS 3 Xrotation Yrotation Zrotation
						End Site
						{
							OFFSET 0.000000 11.669021 0.000000
						}
					}
				}
			}
		}
	}
	JOINT RightUpLeg
	{
		OFFSET -15.569500 -6.655098 0.678600
		CHANNELS 3 Xrotation Yrotation Zrotation
		JOINT RightLeg
		{
			OFFSET -4.081825 -39.591045 13.023800
			CHANNELS 3 Xrotation Yrotation Zrotation
			JOINT RightFoot
			{
				OFFSET 4.081824 -37.707954 -15.979600
				CHANNELS 3 Xrotation Yrotation Zrotation
				JOINT RightToeBase
				{
					OFFSET -5.346400 -15.068900 20.645000
					CHANNELS 3 Xrotation Yrotation Zrotation
					JOINT RightToe_End
					{
						OFFSET -2.754700 0.931300 11.300900
						CHANNELS 3 Xrotation Yrotation Zrotation
						End Site
						{
							OFFSET 0.000000 11.669021 0.000000
						}
					}
				}
			}
		}
	}
}
MOTION
Frames: 6
Frame Time: 0.033333
5.767724 93.210091 206.462143 -1.381000 1.498495 -0.794135 1.172695 -16.330753 -3.349684 1.714252 -1.295958 -1.443428 1.704444 -1.327080 -1.429341 -4.859298 1.903348 4.716076 -0.545285 15.858714 4.213932 -0.000000 -0.000000 0.000000 0.409901 5.086602 -8.819714 9.414927 -8.411444 -37.725256 0.000027 -117.802472 0.000039 -2.267612 -6.207631 8.723621 54.794086 -6.229059 -32.476201 -31.718002 33.659445 43.158131 -12.504034 18.447788 20.547958 0.000002 -0.000000 -0.000002 3.875936 6.193086 -64.049956 8.059908 6.779964 -99.886483 2.437116 5.258952 -49.704140 -0.000000 0.000000 -0.000002 3.874182 6.192267 -64.033795 8.061839 6.779637 -99.902677 2.437118 5.258959 -49.704130 -0.000000 -0.000002 0.000003 3.875937 6.193087 -64.049956 8.059912 6.779967 -99.886476 2.437114 5.258950 -49.704140 -0.000002 0.000001 0.000002 7.548444 7.969632 -63.992486 8.054676 2.694172 -99.823194 2.437115 5.258959 -49.704127 -0.000001 -0.000000 -0.000000 2.466832 4.800337 11.530097 -7.823620 -33.815747 68.333850 0.000017 105.521109 -0.000025 -3.161749 6.401559 4.615700 56.672306 4.603457 19.957079 8.792338 -50.935296 -19.654820 4.099133 -20.497145 -11.073069 0.000000 0.000000 -0.000003 5.163705 -6.716248 75.082869 8.621732 -6.744646 103.969980 2.651277 -5.465362 51.730497 0.000002 0.000000 -0.000000 5.163705 -6.716247 75.082876 8.621737 -6.744646 103.969973 2.651280 -5.465362 51.730490 0.000001 0.000001 0.000001 5.163705 -6.716250 75.082883 8.621738 -6.744647 103.969980 2.651277 -5.465361 51.730500 0.000000 0.000001 -0.000001 5.163705 -6.716248 75.082876 8.621749 -6.744654 103.969973 2.651276 -5.465357 51.730497 0.000002 -0.000001 -0.000001 12.641335 15.303134 0.172155 11.740003 -0.870325 0.049136 -22.832870 0.722469 -2.029032 -0.382639 -0.000003 -0.000001 0.000000 0.000002 0.000000 -30.723816 -3.560547 -2.518171 15.954548 -11.646636 -0.683521 -5.365086 -11.390514 -2.076909 0.000000 0.000001 0.000000 -0.000000 -0.000001 0.000000 
5.445931 93.058044 210.047485 -0.992352 2.353015 -1.060548 1.334497 -16.810619 -2.547513 1.630933 -1.660965 -1.119481 1.616905 -1.688638 -1.095549 -3.793986 2.029455 4.676483 0.023465 16.393724 3.079708 0.000000 -0.000000 0.000000 0.366594 4.528748 -7.705545 8.617799 -9.293414 -39.129597 -0.000008 -118.998657 -0.000003 -1.511130 -4.063837 10.706020 54.794069 -6.229058 -32.476194 -31.718002 33.659456 43.158131 -12.504025 18.447771 20.547956 -0.000001 0.000001 -0.000002 3.875925 6.193096 -64.049949 8.059917 6.779950 -99.886476 2.437124 5.258931 -49.704137 0.000000 0.000002 -0.000001 3.874188 6.192248 -64.033795 8.061833 6.779616 -99.902711 2.437112 5.258946 -49.704123 0.000002 -0.000002 0.000002 3.875927 6.193097 -64.049949 8.059925 6.779949 -99.886476 2.437126 5.258920 -49.704140 0.000003 -0.000001 -0.000000 7.548435 7.969637 -63.992473 8.054700 2.694160 -99.823215 2.437117 5.258929 -49.704134 -0.000003 -0.000000 -0.000001 2.370175 4.547869 11.505217 -7.484270 -30.043837 66.765202 0.000080 106.199599 -0.000079 -7.627788 4.947357 1.596299 56.672316 4.603446 19.957065 8.792333 -50.935296 -19.654824 4.099134 -20.497145 -11.073069 0.000001 0.000000 -0.000001 5.163705 -6.716247 75.082876 8.621732 -6.744644 103.969980 2.651279 -5.465365 51.730497 -0.000001 -0.000000 0.000001 5.163705 -6.716246 75.082876 8.621737 -6.744646 103.969973 2.651277 -5.465366 51.730494 0.000000 0.000001 -0.000001 5.163706 -6.716248 75.082890 8.621739 -6.744649 103.969980 2.651276 -5.465362 51.730500 -0.000005 0.000000 -0.000000 5.163705 -6.716248 75.082876 8.621745 -6.744653 103.969973 2.651276 -5.465356 51.730497 0.000001 0.000000 -0.000000 15.267477 15.578398 0.357229 10.376660 -1.082693 0.074871 -24.479297 0.212096 -0.105359 -1.600601 0.000004 0.000000 0.000000 -0.000000 -0.000000 -31.876667 -3.752600 -2.022679 14.090255 -11.471033 -0.194846 -6.629289 -14.208048 -4.803068 0.000007 0.000009 -0.000002 0.000001 -0.000002 0.000000 
4.890644 91.510109 214.525970 -0.746650 3.230094 -0.890741 1.333866 -17.330449 -2.339677 1.560938 -2.020120 -0.761641 1.543032 -2.043347 -0.727447 -2.853280 2.154412 4.684573 0.594728 17.061322 1.782757 -0.000000 0.000000 0.000000 0.340869 3.879029 -6.557511 8.584669 -10.829078 -40.702614 -0.000004 -119.598989 -0.000003 -0.507700 -1.985515 13.115975 54.794066 -6.229048 -32.476201 -31.717995 33.659449 43.158118 -12.504031 18.447776 20.547958 0.000002 0.000004 -0.000001 3.875918 6.193108 -64.049956 8.059934 6.779956 -99.886469 2.437120 5.258942 -49.704123 -0.000001 -0.000001 0.000000 3.874181 6.192257 -64.033782 8.061858 6.779614 -99.902718 2.437112 5.258931 -49.704113 -0.000001 0.000002 -0.000002 3.875918 6.193108 -64.049956 8.059936 6.779961 -99.886469 2.437119 5.258937 -49.704123 0.000001 -0.000000 0.000002 7.548435 7.969630 -63.992479 8.054700 2.694164 -99.823215 2.437126 5.258943 -49.704113 0.000000 0.000001 -0.000002 2.243463 4.176028 11.478112 -7.258963 -26.024918 65.452091 -0.000013 107.516733 0.000019 -12.766712 3.695838 -1.212985 56.672306 4.603467 19.957087 8.792335 -50.935296 -19.654827 4.099134 -20.497147 -11.073069 0.000000 -0.000001 -0.000001 5.163706 -6.716246 75.082876 8.621732 -6.744644 103.969973 2.651277 -5.465367 51.730500 0.000003 -0.000000 0.000001 5.163706 -6.716245 75.082876 8.621735 -6.744647 103.969973 2.651281 -5.465364 51.730494 -0.000000 -0.000000 -0.000001 5.163705 -6.716248 75.082890 8.621739 -6.744649 103.969973 2.651278 -5.465366 51.730497 0.000004 -0.000001 0.000001 5.163707 -6.716247 75.082876 8.621744 -6.744654 103.969973 2.651275 -5.465358 51.730500 0.000001 0.000001 -0.000001 16.765118 15.337384 1.256759 12.951690 -1.063875 0.017585 -27.057448 0.099963 0.139742 -4.881415 -0.000013 -0.000001 0.000000 -0.000001 -0.000001 -33.603595 -3.767511 -0.703298 18.208347 -11.506448 -1.868342 -6.344842 -14.658590 -6.904750 -0.000001 -0.000000 0.000001 -0.000001 -0.000002 0.000000 
4.326348 90.311798 218.807571 -0.763637 3.913917 -1.209889 1.378868 -17.820146 -1.890930 1.469554 -2.343898 -0.423386 1.448474 -2.363125 -0.377504 -2.117676 2.258538 4.776860 1.271670 17.816847 0.362055 -0.000000 0.000000 0.000000 0.344443 3.275149 -5.706936 8.826230 -12.967623 -42.206840 -0.000036 -118.731951 -0.000029 0.572911 0.114197 15.656378 54.794072 -6.229063 -32.476190 -31.718002 33.659452 43.158128 -12.504029 18.447791 20.547953 -0.000002 -0.000000 0.000002 3.875932 6.193095 -64.049969 8.059930 6.779965 -99.886483 2.437122 5.258942 -49.704123 -0.000002 0.000001 -0.000002 3.874182 6.192248 -64.033795 8.061830 6.779636 -99.902711 2.437120 5.258943 -49.704130 -0.000001 0.000001 0.000001 3.875932 6.193095 -64.049969 8.059939 6.779970 -99.886483 2.437118 5.258927 -49.704123 -0.000002 0.000002 0.000001 7.548428 7.969641 -63.992493 8.054700 2.694158 -99.823194 2.437122 5.258946 -49.704140 0.000001 -0.000000 -0.000000 2.103085 3.728108 11.450203 -7.222114 -21.662619 64.612237 0.000085 109.320067 -0.000084 -17.651919 2.437950 -3.649046 56.672310 4.603455 19.957070 8.792337 -50.935302 -19.654829 4.099133 -20.497147 -11.073067 -0.000001 -0.000000 -0.000000 5.163707 -6.716246 75.082876 8.621731 -6.744644 103.969980 2.651278 -5.465367 51.730494 0.000000 -0.000001 0.000002 5.163707 -6.716246 75.082876 8.621737 -6.744645 103.969980 2.651276 -5.465362 51.730497 -0.000003 -0.000001 0.000001 5.163707 -6.716248 75.082883 8.621738 -6.744649 103.969980 2.651277 -5.465365 51.730497 -0.000000 -0.000000 0.000001 5.163708 -6.716247 75.082876 8.621747 -6.744653 103.969973 2.651275 -5.465357 51.730490 0.000001 -0.000001 0.000001 17.455571 15.191379 3.073779 16.471838 -1.246003 -0.147737 -27.856343 0.389614 -0.100189 -10.214498 -0.000019 -0.000005 0.000000 0.000000 -0.000000 -33.817619 -3.838701 -0.265224 20.766803 -10.293883 -1.654949 -1.103689 -17.551843 -5.844852 -0.000001 -0.000001 0.000000 -0.000000 0.000001 0.000000 
3.689402 89.210030 223.022141 -1.097294 4.233891 -1.770543 1.435431 -18.256116 -1.406967 1.382624 -2.606951 -0.129777 1.360279 -2.621967 -0.071352 -1.645462 2.316519 5.005520 2.100463 18.598988 -1.110217 0.000000 -0.000000 -0.000000 0.372619 2.791554 -5.346722 8.930195 -15.716813 -43.701613 -0.000044 -115.709360 -0.000030 1.715753 2.405633 17.942625 54.794090 -6.229045 -32.476197 -31.718002 33.659452 43.158121 -12.504036 18.447771 20.547962 -0.000002 -0.000003 -0.000001 3.875947 6.193088 -64.049956 8.059906 6.779957 -99.886496 2.437116 5.258935 -49.704140 -0.000001 -0.000002 0.000002 3.874196 6.192252 -64.033775 8.061837 6.779636 -99.902698 2.437114 5.258954 -49.704127 0.000001 0.000001 -0.000003 3.875947 6.193088 -64.049956 8.059908 6.779959 -99.886496 2.437115 5.258937 -49.704140 0.000005 0.000000 0.000002 7.548450 7.969627 -63.992486 8.054673 2.694159 -99.823201 2.437122 5.258947 -49.704123 0.000002 -0.000001 -0.000000 1.969693 3.274419 11.422891 -7.271721 -16.916808 64.231113 0.000007 111.431210 -0.000009 -21.262751 1.162190 -5.888300 56.672303 4.603463 19.957072 8.792339 -50.935292 -19.654817 4.099134 -20.497147 -11.073069 0.000001 -0.000000 0.000000 5.163706 -6.716251 75.082876 8.621732 -6.744644 103.969980 2.651278 -5.465364 51.730497 -0.000002 -0.000000 0.000001 5.163706 -6.716250 75.082876 8.621736 -6.744647 103.969980 2.651276 -5.465359 51.730490 -0.000002 0.000001 0.000000 5.163707 -6.716252 75.082883 8.621738 -6.744651 103.969973 2.651278 -5.465361 51.730497 0.000003 -0.000002 0.000001 5.163707 -6.716251 75.082876 8.621744 -6.744654 103.969980 2.651276 -5.465359 51.730500 -0.000001 0.000000 0.000003 17.077795 14.781147 5.403362 22.038208 -1.001238 -0.186811 -27.167713 0.972292 -0.139714 -18.567760 0.000001 -0.000001 0.000000 0.000001 0.000000 -32.903272 -4.556785 0.025071 22.400408 -10.054803 -1.453192 4.724611 -18.023665 -3.285607 0.000001 0.000006 -0.000000 -0.000000 -0.000001 -0.000000 
3.037335 88.203484 226.986755 -1.716958 4.130049 -2.538470 1.549366 -18.601730 -0.788432 1.311495 -2.792323 0.094516 1.290650 -2.802722 0.166107 -1.468272 2.305975 5.412128 3.051900 19.342899 -2.532032 0.000000 -0.000000 0.000000 0.415417 2.357800 -5.379563 8.448004 -18.912130 -45.717506 -0.000001 -110.537097 0.000002 3.042807 5.016391 19.703110 54.794076 -6.229054 -32.476187 -31.717985 33.659428 43.158118 -12.504034 18.447800 20.547967 -0.000002 -0.000004 -0.000004 3.875916 6.193091 -64.049935 8.059919 6.779971 -99.886476 2.437123 5.258946 -49.704120 -0.000003 0.000000 -0.000002 3.874172 6.192263 -64.033782 8.061840 6.779646 -99.902677 2.437133 5.258956 -49.704123 0.000001 0.000003 -0.000001 3.875916 6.193091 -64.049942 8.059923 6.779972 -99.886483 2.437124 5.258947 -49.704123 -0.000001 -0.000000 -0.000001 7.548415 7.969646 -63.992486 8.054697 2.694179 -99.823174 2.437126 5.258951 -49.704123 -0.000003 0.000002 -0.000002 1.860022 2.881866 11.398596 -7.193059 -11.798239 64.050447 0.000026 113.660174 -0.000014 -22.908562 0.175765 -8.260670 56.672306 4.603466 19.957067 8.792339 -50.935299 -19.654822 4.099132 -20.497150 -11.073068 -0.000001 0.000000 -0.000001 5.163706 -6.716245 75.082876 8.621732 -6.744646 103.969973 2.651275 -5.465364 51.730497 0.000001 -0.000000 0.000001 5.163706 -6.716244 75.082876 8.621738 -6.744645 103.969980 2.651278 -5.465360 51.730494 -0.000001 0.000001 -0.000002 5.163706 -6.716247 75.082883 8.621740 -6.744648 103.969980 2.651276 -5.465363 51.730497 0.000002 0.000001 -0.000001 5.163706 -6.716245 75.082876 8.621746 -6.744655 103.969973 2.651275 -5.465354 51.730497 -0.000002 0.000000 -0.000001 14.747630 13.792277 8.157199 30.423100 -0.536695 0.035510 -23.271834 2.572618 -0.882988 -28.356121 -0.000000 0.000002 0.000000 0.000002 0.000001 -31.292057 -4.922618 0.689951 24.526101 -10.432296 -1.419574 7.424233 -17.881285 -0.977063 -0.000002 0.000002 0.000001 0.000000 0.000001 0.000000 
